<svg width="500" height="400" xmlns="http://www.w3.org/2000/svg">
  <defs>
    <linearGradient id="bg4" x1="0%" y1="0%" x2="100%" y2="100%">
      <stop offset="0%" style="stop-color:#f1c40f;stop-opacity:1" />
      <stop offset="100%" style="stop-color:#f39c12;stop-opacity:1" />
    </linearGradient>
  </defs>
  <rect width="100%" height="100%" fill="url(#bg4)"/>
  
  <!-- Patates kızartması paketi -->
  <rect x="200" y="150" width="100" height="120" rx="10" fill="#e67e22" stroke="#d35400" stroke-width="3"/>
  
  <!-- Patates kızartması çubukları -->
  <rect x="210" y="160" width="8" height="40" fill="#f4d03f" rx="2"/>
  <rect x="225" y="155" width="6" height="45" fill="#f4d03f" rx="2"/>
  <rect x="240" y="165" width="7" height="35" fill="#f4d03f" rx="2"/>
  <rect x="255" y="160" width="8" height="40" fill="#f4d03f" rx="2"/>
  <rect x="270" y="158" width="6" height="42" fill="#f4d03f" rx="2"/>
  <rect x="285" y="162" width="7" height="38" fill="#f4d03f" rx="2"/>
  
  <!-- Tuz taneleri -->
  <circle cx="220" cy="140" r="2" fill="white" opacity="0.8"/>
  <circle cx="235" cy="135" r="1.5" fill="white" opacity="0.8"/>
  <circle cx="250" cy="138" r="2" fill="white" opacity="0.8"/>
  <circle cx="265" cy="136" r="1.5" fill="white" opacity="0.8"/>
  <circle cx="280" cy="139" r="2" fill="white" opacity="0.8"/>
  
  <!-- Sos kutusu -->
  <rect x="320" y="200" width="30" height="40" rx="5" fill="#e74c3c"/>
  <ellipse cx="335" cy="220" rx="8" ry="3" fill="#c0392b"/>
  
  <!-- Metin -->
  <text x="250" y="320" text-anchor="middle" fill="white" font-size="28" font-family="Arial, sans-serif" font-weight="bold">Patates Kızartması</text>
  <text x="250" y="340" text-anchor="middle" fill="white" font-size="16" font-family="Arial, sans-serif">Çıtır Çıtır</text>
</svg> 