<svg width="500" height="400" xmlns="http://www.w3.org/2000/svg">
  <defs>
    <linearGradient id="bg5" x1="0%" y1="0%" x2="100%" y2="100%">
      <stop offset="0%" style="stop-color:#3498db;stop-opacity:1" />
      <stop offset="100%" style="stop-color:#2980b9;stop-opacity:1" />
    </linearGradient>
  </defs>
  <rect width="100%" height="100%" fill="url(#bg5)"/>
  
  <!-- Kola şişesi -->
  <rect x="180" y="150" width="25" height="80" rx="5" fill="#e74c3c" stroke="#c0392b" stroke-width="2"/>
  <ellipse cx="192.5" cy="230" rx="12" ry="5" fill="#e74c3c"/>
  <rect x="185" y="155" width="15" height="70" fill="#c0392b" opacity="0.3"/>
  
  <!-- Ayran bardağı -->
  <ellipse cx="250" cy="200" rx="20" ry="15" fill="white" stroke="#bdc3c7" stroke-width="2"/>
  <ellipse cx="250" cy="200" rx="18" ry="13" fill="#ecf0f1"/>
  <rect x="240" y="200" width="20" height="40" fill="white" stroke="#bdc3c7" stroke-width="2"/>
  <ellipse cx="250" cy="240" rx="10" ry="5" fill="white"/>
  
  <!-- Su şişesi -->
  <rect x="320" y="160" width="20" height="70" rx="3" fill="#74b9ff" stroke="#0984e3" stroke-width="1"/>
  <ellipse cx="330" cy="230" rx="10" ry="3" fill="#74b9ff"/>
  <rect x="325" y="165" width="10" height="60" fill="#0984e3" opacity="0.2"/>
  
  <!-- Buz küpleri -->
  <rect x="200" y="180" width="8" height="8" fill="white" opacity="0.8" rx="1"/>
  <rect x="210" y="175" width="6" height="6" fill="white" opacity="0.8" rx="1"/>
  <rect x="280" y="185" width="7" height="7" fill="white" opacity="0.8" rx="1"/>
  <rect x="290" y="180" width="5" height="5" fill="white" opacity="0.8" rx="1"/>
  
  <!-- Köpük efektleri -->
  <circle cx="245" cy="195" r="3" fill="white" opacity="0.6"/>
  <circle cx="255" cy="190" r="2" fill="white" opacity="0.6"/>
  <circle cx="248" cy="205" r="2.5" fill="white" opacity="0.6"/>
  
  <!-- Metin -->
  <text x="250" y="320" text-anchor="middle" fill="white" font-size="28" font-family="Arial, sans-serif" font-weight="bold">Taze İçecekler</text>
  <text x="250" y="340" text-anchor="middle" fill="white" font-size="16" font-family="Arial, sans-serif">Soğuk ve Ferahlatıcı</text>
</svg> 